<?xml version="1.0" encoding="iso-8859-1"?>
<!-- Generator: Adobe Illustrator 19.0.0, SVG Export Plug-In . SVG Version: 6.00 Build 0)  -->
<svg version="1.1" id="Layer_1" xmlns="http://www.w3.org/2000/svg" xmlns:xlink="http://www.w3.org/1999/xlink" x="0px" y="0px"
	 viewBox="0 0 512 512" style="enable-background:new 0 0 512 512;" xml:space="preserve">
<g>
	<g>
		<path d="M448,0H64C28.645,0,0,28.645,0,64v192v192c0,1.083,0.028,2.162,0.082,3.237c0.036,0.724,0.101,1.441,0.161,2.159
			c0.029,0.34,0.044,0.682,0.078,1.021c0.096,0.97,0.221,1.931,0.36,2.888c0.012,0.08,0.019,0.162,0.031,0.242
			C5.319,488.37,31.889,512,64,512h384c32.111,0,58.681-23.63,63.289-54.454c0.012-0.08,0.019-0.162,0.031-0.242
			c0.139-0.957,0.264-1.918,0.36-2.888c0.034-0.339,0.049-0.681,0.078-1.021c0.06-0.718,0.125-1.434,0.161-2.159
			c0.054-1.074,0.082-2.153,0.082-3.237V256V64C512,28.645,483.355,0,448,0z M469.333,64v140.497l-161.83-161.83H448
			C459.791,42.667,469.333,52.209,469.333,64z M469.333,439.163L271.085,240.915c-8.331-8.331-21.839-8.331-30.17,0L42.667,439.163
			V264.837L256,51.503l213.333,213.333V439.163z M439.164,469.333H72.837L256,286.17L439.164,469.333z M64,42.667h140.497
			l-161.83,161.83V64C42.667,52.209,52.209,42.667,64,42.667z"/>
	</g>
</g>
<g>
</g>
<g>
</g>
<g>
</g>
<g>
</g>
<g>
</g>
<g>
</g>
<g>
</g>
<g>
</g>
<g>
</g>
<g>
</g>
<g>
</g>
<g>
</g>
<g>
</g>
<g>
</g>
<g>
</g>
</svg>
